<?xml version="1.0" encoding="utf-8"?>
<!DOCTYPE svg PUBLIC "-//W3C//DTD SVG 1.1//EN" "http://www.w3.org/Graphics/SVG/1.1/DTD/svg11.dtd">
<svg version="1.1" id="Capa_1" xmlns="http://www.w3.org/2000/svg" xmlns:xlink="http://www.w3.org/1999/xlink" x="0px" y="0px"
	 width="290px" height="500px" viewBox="0 0 290 500" enable-background="new 0 0 290 500" xml:space="preserve">
<path fill="#FFFFFF" stroke="#000000" stroke-linecap="square" stroke-linejoin="bevel" stroke-miterlimit="10" d="M87.578,152.24
	c4.361,4.363,9.6,2.618,12.217,6.107c1.746,3.491,1.746,8.729,1.746,13.091c0.873,4.364,6.109,6.109,10.473,6.109
	c0-2.619,2.619-3.491,3.492-5.236c4.363-11.346,1.746-26.183,7.854-35.782c3.492-5.234,10.475-7.854,13.965-16.582
	c3.463-8.656,14.653-7.868,22.502-11.266c-2.595-1.519-4.769-3.805-5.921-8.808c0-0.872-3.489,2.617-5.235,2.617
	c-6.107-0.872-8.729-6.108-11.346-11.346c-0.871,0-3.49,0.871-4.363,0c0-0.875,0-1.746,0-2.619
	c-6.982,6.981-12.219,13.964-19.199,3.49c-1.746,5.237-6.109,7.854-12.219,8.729c-5.236,0.873-10.475,7.854-16.582,7.854
	c0.871,1.746-1.746,2.618-0.873,4.363c-2.266-3.021-4.531-3.424-7.361-2.351c-0.053,1.604-0.053,4.092-0.053,4.092
	s-0.873,3.346-1.164,3.78c-0.291,0.438-1.309,3.639-1.309,3.639l3.346,3.489v2.765l2.328,1.6l2.326,3.637l1.455,2.765l-0.582,10.765
	l-2.473,1.745l-2.307,1.538C81.775,149.68,86.729,150.547,87.578,152.24z"/>
<path fill="#FFFFFF" stroke="#000000" stroke-linecap="square" stroke-linejoin="bevel" stroke-miterlimit="10" d="M230.268,212.315
	l-0.533-5.082c-5.518-5.038-8.863-10.813-12.99-16.591c-5.236-6.981-5.236-13.964-9.602-20.072
	c-3.492-4.362-0.873-6.979,2.617-10.474c-6.109-0.873-6.98-3.491-6.98-9.6c-2.617,3.489-8.729-0.873-11.348,3.489
	c0-1.745,0-2.618-0.871-3.489c-0.873-0.873-2.619,0-3.492,0.871c0,1.745-1.742,2.618-0.871,4.362
	c-4.361,0.875-9.602,0.875-11.346,4.364c-2.619,2.617,3.49,6.98,1.744,10.474c0,0.873,0.873,3.49-1.744,3.49
	c0.873,6.109,1.744,9.601-0.873,15.709c1.746,0.873,3.49,2.618,3.49,3.491c2.619,11.345,9.6,28.801,23.564,26.183
	c0,0,0.871-1.745,0.871-2.618c6.109-4.363,7.855,3.49,10.475,6.981c3.08,6.163,8.203,3.486,12.965,3.375l0.854-1.193l5.383-4.071
	l1.455-4.51L230.268,212.315z"/>
<path fill="#FFFFFF" stroke="#000000" stroke-linecap="square" stroke-linejoin="bevel" stroke-miterlimit="10" d="M160.887,188.024
	c0,1.746-1.746,2.618-1.746,3.491c-3.49,2.618-8.729-2.619-13.961,0.872c-4.363,2.619-11.346-2.618-16.582-0.872
	c-2.619,0.872,5.236,6.108,2.619,9.6c-4.365,3.491-8.73-2.615-10.475-1.743c-6.109,2.616-8.729,9.601-11.346,15.71
	c0,0.873,1.746,0.873,2.617,1.744c2.619,6.981-2.617,13.965,4.365,19.2c6.109,3.491,12.217-0.874,17.455-4.361
	c0.873-0.873,3.49,3.487,5.234,3.487c5.236,1.746,9.602-4.36,15.709-1.744c0.873-2.617,4.363-0.875,4.363-4.361
	c4.363,0,7.854,4.361,11.344,2.618c0.875-0.873,3.492-3.491,4.365-2.618c5.236,3.488,6.982,13.963,15.709,8.727
	c0.822,12.33,14.803,14.596,25.178,19.191c-0.01-0.149-0.014-0.297-0.014-0.438c0-1.161,1.453-2.327,1.453-2.327l-0.436-3.636
	c0,0,2.182-6.397,2.619-6.836c0.436-0.438,3.199-4.073,3.199-4.073l2.473-6.106l-0.289-5.521l0.6-0.842
	c-4.76,0.111-9.883,2.788-12.965-3.375c-2.619-3.491-4.363-11.347-10.473-6.981c0,0.872-0.873,2.618-0.873,2.618
	c-5.777,1.084-13.936-5.208-13.936-5.208s-8.098-14.322-9.631-20.975c0-0.873-1.742-2.618-3.488-3.491
	C169.615,190.642,165.252,188.024,160.887,188.024z"/>
<path fill="#FFFFFF" stroke="#000000" stroke-linecap="square" stroke-linejoin="bevel" stroke-miterlimit="10" d="M123.359,247.37
	c0.082-0.289,0.193-0.559,0.316-0.813C123.287,246.758,122.963,246.973,123.359,247.37z"/>
<path fill="#FFFFFF" stroke="#000000" stroke-linecap="square" stroke-linejoin="bevel" stroke-miterlimit="10" d="M123.676,246.558
	c0.188-0.097,0.387-0.188,0.533-0.297c0.008-0.197,0.02-0.389,0.02-0.598C124.018,245.939,123.832,246.238,123.676,246.558z"/>
<path fill="#FFFFFF" stroke="#000000" stroke-linecap="square" stroke-linejoin="bevel" stroke-miterlimit="10" d="M117.25,258.716
	c-0.094,0.229-0.195,0.449-0.295,0.672C117.117,259.261,117.25,259.056,117.25,258.716z"/>
<path fill="#FFFFFF" stroke="#000000" stroke-linecap="square" stroke-linejoin="bevel" stroke-miterlimit="10" d="M86.705,261.334
	c-0.643,1.281-0.705,2.303-0.387,3.149C86.715,263.623,86.885,262.595,86.705,261.334z"/>
<path fill="#FFFFFF" stroke="#000000" stroke-linecap="square" stroke-linejoin="bevel" stroke-miterlimit="10" d="M139.068,303.225
	c-0.275-0.354-0.568-0.671-0.865-0.972C138.225,302.779,138.348,303.225,139.068,303.225z"/>
<path fill="#FFFFFF" stroke="#000000" stroke-linecap="square" stroke-linejoin="bevel" stroke-miterlimit="10" d="M118.123,274.425
	c-3.49,0.874-6.109,5.237-8.729,3.491c-1.691-0.847-1.748-4.147-3.338-6.734c-3.828,1.726-7.932,1.653-11.498-1.12
	c-2.637-1.977-7.26-2.959-8.242-5.576c-1.525,3.312-6.623,4.015-10.086,4.704c0.873,1.745-0.873,2.617-1.746,3.491
	c-3.49,1.744-0.873-3.491-2.619-3.491c0.873,6.981-0.873,13.964,1.746,20.073c-5.234-1.745-10.473,3.49-15.709,1.744
	c-0.873-0.872-6.107,6.107-0.873,6.98c-2.617,0.873-3.49,3.49-6.107,4.363c3.49,4.363,5.234,6.982,3.49,12.219
	c1.744,0.872,5.236-0.873,5.236,0.872c0,4.906,4.301,9.38,4.141,13.12c2.117,0.146,2.998,1.001,4.588,2.589
	c0.871-0.873,1.744-1.743,1.744-3.487c6.109-0.873,16.582,0,18.328-6.982c0-0.873-1.746-0.873-2.619-0.873
	c2.619-4.363,0-5.235,0.873-9.6c0-1.745,2.619-2.619,1.746-5.237c-0.873-2.617-3.49-5.235-2.617-6.981
	c1.744-0.873,5.234-0.873,6.98-2.614c0.873-1.746,0-4.365,0.873-6.109c4.363-3.492,8.729-6.982,14.836-7.854
	c0,1.744-0.873,3.488,1.746,4.361C117.25,285.77,118.996,280.533,118.123,274.425z"/>
<path fill="#FFFFFF" stroke="#000000" stroke-linecap="square" stroke-linejoin="bevel" stroke-miterlimit="10" d="M62.268,406.209
	c4.363-3.491,4.363,9.601,9.6,3.489c0.873,3.489,2.619,6.98,2.619,11.347c1.744-3.491,6.98-2.617,7.854-4.363
	c4.363-7.854-5.236-9.6-9.6-15.709c-0.873-1.745-0.873-6.108,0-6.108c6.109-2.616,13.092,0.872,20.072-0.873
	c-3.49-2.616,0-5.233,0-8.728c-0.873-4.363-2.617-8.728-7.854-7.854c1.746-3.491,3.492-6.981,6.98-8.729
	c1.746,0,3.492,3.491,5.236,3.491c7.855-3.491,6.982-10.476,9.602-18.328c0.873-1.746,6.982-2.619,5.236-6.982
	c-0.873-0.872-4.363-0.872-4.363-2.616c0-13.093-13.092-10.475-21.818-13.093c-0.824,0-0.096-3.889-1.48-5.792
	c-4.074,1.911-10.131,1.718-14.229,2.304c0,1.743-0.873,2.615-1.746,3.488c-1.588-1.589-2.471-2.443-4.586-2.59
	c-0.07,1.584-0.934,3.038-3.27,4.336c0-0.873-1.746-1.746-0.873-2.619c-4.363,0.873-10.473,1.746-13.09-2.615
	c1.738,5.216-5.18,6.97-5.234,11.296l0.582,2.801v8.145l2.473,3.2v10.766l3.637,5.817v5.236l2.473,2.911l-0.146,6.837l-0.729,8.872
	l2.326,2.328l0.727,1.31l0.584,4.944l1.6,4.804l0.729,3.637l-0.146,1.892l-0.018,0.107C59.656,413.238,59.83,407.834,62.268,406.209
	z"/>
<path fill="#FFFFFF" stroke="#000000" stroke-linecap="square" stroke-linejoin="bevel" stroke-miterlimit="10" d="M119.867,360.825
	c0.875-7.854,10.473-13.965,15.709-6.98c1.746,1.746,0.875,6.98,2.619,10.473c0.871,0.873,3.49,2.619,5.236,2.619
	c6.98-4.363,6.109-15.711,13.963-17.455c1.746-0.871,3.49,5.236,4.365,3.49c4.295-4.298,9.436-6.059,12.926-9.445
	c-2.533-10.992-4.459-19.409-16.418-21.973c0.873,0,1.746,0,1.746,0c0.871-0.873,0-3.491-0.873-3.491
	c-10.475-0.873-13.094-10.474-17.457-18.327c-0.873,0-3.49-0.873-4.363,0.872c1.025,0,0.848,0.902,0.881,1.646
	c0.297,0.301,0.588,0.616,0.865,0.972c-0.721,0-0.846-0.447-0.865-0.972c-6.262-6.275-16.748-0.376-20.08-10.374
	c-0.873,1.746-2.619,2.619-4.363,4.364c-0.873-3.491-3.492-6.981-3.492-10.477c-2.617-0.873-1.744-2.616-1.744-4.362
	c-6.109,0.872-10.473,4.362-14.838,7.854c-0.873,1.744,0,4.363-0.873,6.109c-1.744,1.741-5.234,1.741-6.98,2.614
	c-0.873,1.746,1.744,4.364,2.617,6.981c0.873,2.618-1.744,3.492-1.744,5.236c-0.873,4.362,1.744,5.234-0.873,9.601
	c0.873,0,2.617,0,2.617,0.873c-0.572,2.299-2.098,3.743-4.098,4.681c1.385,1.904,0.656,5.794,1.48,5.794
	c8.727,2.616,21.818,0,21.818,13.093c0,1.742,3.49,1.742,4.363,2.614c0.773,1.938,0,3.188-1.174,4.127
	C113.777,354.538,114.113,360.006,119.867,360.825z"/>
<path fill="#FFFFFF" stroke="#000000" stroke-linecap="square" stroke-linejoin="bevel" stroke-miterlimit="10" d="M118.49,436.893
	c0.166-0.036,0.334-0.08,0.504-0.139C118.775,436.757,118.611,436.809,118.49,436.893z"/>
<path fill="#FFFFFF" stroke="#000000" stroke-linecap="square" stroke-linejoin="bevel" stroke-miterlimit="10" d="M126.85,442.865
	c0,0,0.873,0,1.746,0c-4.363-1.745-6.109-6.107-10.473-5.235c0,0,0-0.488,0.367-0.733c-2.342,0.502-3.973-1.127-5.604-2.757
	c-3.49-2.618-7.855,2.618-9.6,0.873c-8.729-5.237-13.092-12.221-20.947-18.328c-0.873,1.746-6.109,0.872-7.854,4.364
	c0-4.364-1.746-7.855-2.619-11.348c-5.236,6.108-5.236-6.98-9.6-3.491c-2.438,1.627-2.611,7.029-6.854,6.354l-0.273,1.638
	l4.51,3.491l-0.145,1.454l-0.873,2.617l-4.365,8.438l4.656,1.02l1.164,2.763l0.727,3.349l-2.182,0.439l-0.146,1.895
	c0,0,0,2.475,0,2.906c0,0.438,0.729,1.313,0.729,1.313l1.598,2.182l-0.436,4.074l-1.891,2.182c0,0,1.164,2.619,1.164,3.057
	c0,0.437-1.018,2.327-1.018,2.327l0.291,5.235l-0.729,1.019l0.729,4.221l1.455,3.198l-2.184,1.02v1.746l-0.582,4.363l2.908-0.146
	l4.656-2.325l10.617,5.235h8.291l5.965-2.473l8-7.714l5.381,5.387l9.891-8.874l3.639-3.349l4.072-2.032l-1.311-5.968l5.236,1.021
	l3.346-0.146l0.363,0.306C130.172,452.311,125.994,448.007,126.85,442.865z"/>
<path fill="#FFFFFF" stroke="#000000" stroke-linecap="square" stroke-linejoin="bevel" stroke-miterlimit="10" d="M113.76,428.029
	c-4.365-5.237-2.619-12.22-0.873-15.711c3.49-10.472,13.963-9.601,23.564-13.091c5.234-1.745,12.217-5.235,17.453-4.362
	c3.49,0,9.602,1.744,12.219-0.873c2.619-1.744,1.746-7.854,4.363-11.347c1.734-2.602,5.193,0.828,8.662,1.729l0.502-4.936
	l-2.037-4.656l0.582-4.07l2.475-2.909l-1.02-4.072l1.311-2.327l1.453-3.928c0,0-0.291-1.603-0.438-2.039
	c-0.146-0.436-1.02-2.908-1.02-2.908l-0.291-5.525c0,0,0.123-0.23,0.291-0.563c0-0.79,0-1.652,0-2.188c-1.746-0.874-6.107,0-6.107,0
	c-0.057-0.242-0.109-0.48-0.164-0.722c-3.49,3.389-8.631,5.147-12.926,9.445c-0.875,1.745-2.619-4.362-4.365-3.49
	c-7.854,1.745-6.982,13.093-13.963,17.454c-1.746,0-4.365-1.745-5.236-2.618c-1.744-3.488-0.873-8.728-2.619-10.474
	c-5.236-6.98-14.836-0.872-15.709,6.982c-5.754-0.821-6.09-6.288-9.027-9.84c-1.473,1.184-3.578,1.887-4.064,2.854
	c-2.617,7.854-1.744,14.837-9.6,18.328c-1.744,0-3.49-3.491-5.236-3.491c-3.49,1.745-5.236,5.236-6.98,8.729
	c5.236-0.874,6.98,3.488,7.854,7.854c0,3.491-3.49,6.109,0,8.729c-6.98,1.743-13.963-1.745-20.072,0.872
	c-0.871,0-0.871,4.362,0,6.107c4.363,6.108,13.965,7.854,9.6,15.711c7.855,6.106,12.219,13.089,20.947,18.326
	c1.596,1.597,5.385-2.636,8.693-1.36c-0.57-0.518-1.141-1.259-1.711-1.259C112.014,431.518,112.014,428.9,113.76,428.029z"/>
<path fill="#FFFFFF" stroke="#000000" stroke-linecap="square" stroke-linejoin="bevel" stroke-miterlimit="10" d="M222.998,441.406
	c0,0-5.529-4.948-6.256-5.53c-0.729-0.582-2.764-4.072-4.219-4.511c-1.453-0.437-4.219,1.021-5.381,1.021
	c-1.164,0-2.91-0.729-4.221-1.311s-8.438-4.363-9.021-4.802c-0.582-0.438-0.58-1.744-0.58-1.744l-1.893-4.071l-0.729-4.945
	l0.584-3.2l0.58-2.472c0,0-0.289-1.747-0.438-2.184c-0.146-0.438-1.454-2.766-1.454-2.766l-4.361-1.311l-0.438-5.092l-6.545-9.021
	l0.519-5.103c-3.469-0.897-6.931-4.327-8.664-1.729c-2.615,3.49-1.744,9.601-4.36,11.346c-2.619,2.617-8.729,0.873-12.222,0.873
	c-5.233-0.873-12.218,2.618-17.454,4.363c-9.602,3.488-20.074,2.619-23.564,13.091c-1.746,3.491-3.49,10.475,0.873,15.71
	c-1.746,0.872-1.746,3.49-3.492,4.363c0.572,0,1.143,0.74,1.711,1.257c0.307,0.119,0.611,0.266,0.908,0.487
	c1.629,1.631,3.26,3.26,5.604,2.758c0.123-0.084,0.285-0.141,0.504-0.141c-0.172,0.061-0.34,0.104-0.504,0.141
	c-0.367,0.244-0.367,0.732-0.367,0.732c4.363-0.871,6.107,3.49,10.473,5.235c-0.873,0-1.746,0-1.746,0
	c-0.857,5.144,3.322,9.447,1.818,14.562l5.02,4.201l14.98-6.69l2.034,1.02c0,0,5.818-1.454,6.4-1.454s3.639,0.29,3.639,0.29
	l1.527,4.655l4.58,1.31c0,0,0.145,2.326,0.145,2.764s1.746,5.092,1.746,5.092l4.8,4.801l8.291,3.056l1.745-4.071l1.601,0.729
	c0,0,5.384,2.325,5.966,2.765c0.582,0.437,1.891,1.601,1.891,1.601s-0.291,2.037-0.291,2.765c0,0.729,2.91,2.475,2.91,2.475
	s0.437,2.182,0,3.347c-0.438,1.162,0.437,2.762,0.729,3.489c0.291,0.729,2.473,1.164,2.473,1.164l4.943-2.185h5.525l3.199-1.745
	c0,0-0.436-6.107-0.436-7.418s-1.455-4.363-1.455-4.8c0-0.438,1.6-4.655,1.6-4.655s-2.473-2.908-2.908-2.908
	c-0.434,0-2.182-4.801-2.182-4.801l-0.582-4.802l2.475-0.87h4.07l4.51-2.619l1.895-4.363l4.219-3.488L222.998,441.406z"/>
<path fill="#FFFFFF" stroke="#000000" stroke-linecap="square" stroke-linejoin="bevel" stroke-miterlimit="10" d="M109.395,277.916
	c2.619,1.746,5.236-2.617,8.729-3.491c0.873,6.108-0.873,11.346-7.855,11.346c0,3.492,2.619,6.982,3.492,10.477
	c1.746-1.746,3.492-2.618,4.363-4.364c3.334,9.998,13.818,4.099,20.08,10.374c-0.031-0.744,0.146-1.646-0.879-1.646
	c0.873-1.744,3.49-0.871,4.361-0.871c4.363,7.854,6.982,17.453,17.455,18.326c0.873,0,1.746,2.618,0.873,3.491c0,0-0.873,0-1.746,0
	c12.219,2.617,13.965,11.346,16.582,22.69c0,0,4.363-0.872,6.109,0c0,0.535,0,1.398,0,2.189c0.385-0.756,1.02-2.043,1.02-2.348
	c0-0.438,0.438-3.348,0.438-3.348l1.164-4.652l0.146-5.964l-0.146-3.782l8.438-9.454l1.744,0.146l0.729,2.327l0.73,5.236
	l3.055,1.744l5.092-3.636l-0.291-5.237l6.107-8.288h4.221l0.146-1.6l-1.454-2.327l-0.438-7.273l-2.034-1.891
	c0,0-0.582-6.109-0.582-6.982c0-0.871,4.069-11.637,4.069-11.637l0.293-6.981l0.728-3.196l3.056-3.931l-1.164-3.928
	c0,0-0.228-1.354-0.276-2.474c-10.375-4.597-24.354-6.861-25.177-19.191c-8.729,5.236-10.475-5.235-15.711-8.727
	c-0.871-0.874-3.489,1.745-4.362,2.616c-3.49,1.746-6.979-2.616-11.345-2.616c0,3.489-3.491,1.745-4.364,4.361
	c-6.108-2.617-10.473,3.49-15.709,1.744c-2.334,7.006-11.604,6.381-14.822,10.492c0.262,0.275,0.174,0.463-0.039,0.618
	c-0.242,5.583-3.656,7.154-8.703,5.472c0,2.62,0.873,5.238,0.873,7.855c0,0,0.324-0.003,0.578-0.201
	c0.1-0.223,0.199-0.443,0.295-0.672c0,0.341-0.135,0.546-0.295,0.672c-2.424,5.41-6.477,9.802-10.898,11.794
	C107.646,273.768,107.703,277.072,109.395,277.916z"/>
<path fill="#FFFFFF" stroke="#000000" stroke-linecap="square" stroke-linejoin="bevel" stroke-miterlimit="10" d="M124.209,246.261
	c0.213-0.155,0.301-0.343,0.039-0.618c-0.006,0.007-0.012,0.015-0.018,0.021C124.23,245.872,124.217,246.064,124.209,246.261z"/>
<path fill="#FFFFFF" stroke="#000000" stroke-linecap="square" stroke-linejoin="bevel" stroke-miterlimit="10" d="M46.557,327.663
	c2.619,4.361,8.729,3.488,13.092,2.615c-0.873,0.873,0.873,1.745,0.873,2.618c7.855-4.36-0.873-10.473-0.873-17.454
	c0-1.746-3.49,0-5.236-0.872c1.746-5.234,0-7.854-3.49-12.22c2.617-0.873,3.49-3.49,6.109-4.363c-5.236-0.873,0-7.854,0.871-6.98
	c5.236,1.746,10.475-3.489,15.709-1.744c-2.617-6.109-0.871-13.091-1.744-20.073c1.744,0-0.873,5.235,2.617,3.491
	c0.873-0.873,2.619-1.746,1.746-3.491c3.463-0.689,8.561-1.396,10.086-4.704c-0.316-0.849-0.254-1.867,0.387-3.148
	c0.182,1.262,0.012,2.289-0.387,3.148c0.982,2.617,5.605,3.603,8.242,5.576c7.686,5.979,17.871-0.578,22.396-10.674
	c-0.254,0.198-0.578,0.201-0.578,0.201c0-2.619-0.875-5.236-0.875-7.854c5.047,1.685,8.463,0.11,8.705-5.473
	c-0.146,0.105-0.346,0.2-0.533,0.297c-0.123,0.255-0.234,0.522-0.316,0.813c-0.396-0.396-0.072-0.612,0.316-0.813
	c0.156-0.32,0.342-0.618,0.555-0.895c0-0.015,0-0.026,0-0.04c0.008,0.008,0.01,0.013,0.016,0.02
	c3.221-4.112,12.486-3.486,14.822-10.491c-1.746,0-4.363-4.361-5.236-3.49c-5.236,3.49-11.346,7.854-17.455,4.364
	c-6.982-5.235-1.746-12.22-4.363-19.201c-0.873-0.873-2.619-0.873-2.619-1.746c-3.49,0.873-6.982,3.491-9.6,1.746
	c-2.617-2.617-1.744-6.107-6.109-5.234c0.582-2.91-0.773-5.044-1.744-7.18c0,0.031,0,0.049,0,0.049s0-0.018,0-0.049
	c-0.098-0.217-0.191-0.434-0.279-0.649c-9.377,0.381-10.061,5.544-6.703,13.938c-6.98-2.616-4.363,4.363-8.729,6.98
	c-3.49,2.619-2.617,3.491-4.363,6.98c-0.873-1.743-2.619-2.616-1.746-4.362c-1.744,1.746-4.363,3.489-5.236,6.107
	c-4.363-3.489-6.98-7.854-6.109-13.964c0-0.491,0-0.872,0-0.872c-3.49-0.873-7.854,0.872-11.344-0.873
	c-3.924-3.141-7.152-8.382-12.838-9.407c-0.316,0.668-0.688,1.549-0.688,1.549l-0.582,5.815c0,0-0.873,4.073-1.018,4.51
	c-0.146,0.438-0.146,3.491-0.146,3.93c0,0.437-0.873,3.491-0.873,3.491l0.582,6.979l-0.291,4.364c0,0-1.6,2.909-1.891,3.347
	c-0.291,0.437-0.582,4.508-0.582,4.508l1.018,4.392v3.609l1.455,5.813l-1.455,4.072l1.602,1.601v2.182v9.893l2.182,8.871
	l1.021,2.473l-1.021,3.929l2.908,3.929l2.619,7.419l-0.146,2.329l-1.6,3.058l-0.873,6.689l2.037,2.473l-0.584,11.347v3.781
	l2.91,3.637l0.143,0.688C41.377,334.632,48.297,332.878,46.557,327.663z"/>
<path fill="#FFFFFF" stroke="#000000" stroke-linecap="square" stroke-linejoin="bevel" stroke-miterlimit="10" d="M124.23,245.664
	c0.006-0.009,0.012-0.015,0.018-0.021c-0.006-0.006-0.008-0.013-0.016-0.02C124.232,245.638,124.23,245.651,124.23,245.664z"/>
<path fill="#FFFFFF" stroke="#000000" stroke-linecap="square" stroke-linejoin="bevel" stroke-miterlimit="10" d="M47.43,217.697
	c3.492,1.745,7.855,0,11.346,0.873c0,0,0,0.382,0,0.872c0,0.873,0,0.873,0,1.746c0-0.873,0-0.873,0-1.746
	c-0.873,6.109,1.746,10.477,6.109,13.964c0.873-2.616,3.492-4.36,5.236-6.106c-0.873,1.746,0.873,2.619,1.746,4.364
	c1.746-3.491,0.873-4.364,4.363-6.981c4.365-2.619,1.746-9.601,8.729-6.981c-3.359-8.396-2.674-13.558,6.703-13.938
	c-0.346-0.854-0.594-1.717-0.594-2.646c0,0,0.871,0,0.871,0.873c0.873-5.234,7.855-7.854,4.365-13.093c0,0.874,0,1.746,0,2.619
	c-4.34-9.545-4.359-14.774,5.932-18.266c-0.318-0.546-0.563-1.146-0.695-1.811c0-4.36,0-9.6-1.746-13.091
	c-2.617-3.49-7.855-1.745-12.217-6.107c-0.85-1.693-5.803-2.563-9.285-1.813l-0.313,0.208l-1.744-2.91l-2.037,0.873l-0.873,6.691
	l-3.199,1.018l-3.055,2.619l0.729,1.455c0,0,0.58,1.891,0.727,2.326c0.146,0.437,1.164,3.49,1.164,3.49l1.746,3.638l-0.873,2.327
	l0.873,2.183v6.545l-1.455,2.617l-2.328,2.182l-3.346-1.454c0,0-3.053,2.327-3.49,2.618c-0.436,0.291-2.473,3.64-2.617,4.073
	c-0.146,0.437-2.182,3.927-2.182,3.927l-0.438,3.058l-2.182,3.055l-2.619,0.728l-4.072,0.438l-3.49-0.291l-1.021-4.946l-1.891-2.035
	l-1.891,1.603l-1.602,2.327c0,0-1.164,4.8-1.6,5.673c-0.438,0.872,0,2.763-0.291,3.199c-0.084,0.125-0.205,0.362-0.332,0.635
	C40.279,209.315,43.506,214.557,47.43,217.697z"/>
<g>
	<path fill="#FFFFFF" stroke="#000000" stroke-linecap="square" stroke-linejoin="bevel" stroke-miterlimit="10" d="
		M270.127,174.054h-2.039l-6.545-3.053l-6.109,1.017l-2.473-5.235l4.947-7.563l-0.584-4.799l3.348-7.127l-0.873-1.745l1.744-5.382
		l1.455-4.512l-3.055-2.765l0.873-4.362l-1.895-3.052l2.91-8.291v-3.346l-2.328-2.909l-5.525-7.854l1.746-10.326l-2.398-4.073
		v-6.473l-5.311-0.945l-10.766,5.163l-3.492-1.236l-3.926,1.236l-8.146-2.399l-2.619-6.396l-5.233-7.93l-5.931-5.929l-10.035,0.109
		l-1.854,3.054l-6.871-1.418l-2.979-1.987c-4.24-0.288-7.97-3.627-8.692,1.442c-1.746,11.346,2.618,23.563-5.236,34.909
		c-1.744,3.49,0,9.601-1.744,14.837c-3.416-3.416-7.375-4.104-10.663-6.029c-7.847,3.396-19.037,2.607-22.5,11.266
		c-3.492,8.729-10.475,11.348-13.965,16.582c-6.107,9.602-3.49,24.438-7.854,35.782c-0.521,1.044-1.668,1.778-2.504,2.759
		c2.408,2.688-0.027,8.59,5.123,8.59c-2.619,3.488-1.746,6.979-1.746,10.473c3.945-1.579,7.891-1.734,11.838-2.396
		c0.086-0.093,0.211-0.167,0.379-0.225c5.236-1.745,12.221,3.492,16.582,0.873c5.236-3.49,10.474,1.746,13.964-0.873
		c0-0.873,1.744-1.745,1.744-3.49c4.362,0,8.729,2.617,13.094,1.745c2.615-6.106,1.742-9.6,0.873-15.71
		c2.615,0,1.742-2.617,1.742-3.489c1.745-3.489-4.361-7.854-1.742-10.475c1.742-3.489,6.979-3.489,11.344-4.362
		c-0.873-1.746,0.873-2.618,0.873-4.361c0.873-0.873,2.617-1.746,3.492-0.873c0.871,0.873,0.871,1.744,0.871,3.488
		c2.617-4.361,8.729,0,11.346-3.488c0,6.106,0.873,8.727,6.982,9.599c-3.49,3.492-6.109,6.109-2.619,10.474
		c4.362,6.109,4.362,13.094,9.603,20.072c4.127,5.777,7.476,11.553,12.991,16.592l-0.047-0.442l2.908,0.437l7.854,6.4h5.672
		l3.347-2.184h4.653l6.838-4.944l-1.312-3.639l1.603-4.361l0.871-4.22l1.164-6.836l3.929,1.02l1.452-1.02l1.455-2.474v-3.491
		l1.746-3.49v-2.183L270.127,174.054z"/>
</g>
<path fill="#FFFFFF" stroke="#000000" stroke-linecap="square" stroke-linejoin="bevel" stroke-miterlimit="10" d="M118.123,183.658
	c-5.15,0-2.713-5.899-5.121-8.589c-0.563,0.659-0.988,1.43-0.988,2.479c-3.697,0-8.014-1.261-9.777-4.301
	c-10.291,3.489-10.27,8.721-5.932,18.266c0-0.873,0-1.746,0-2.619c3.492,5.237-3.492,7.855-4.363,13.093
	c0-0.873-0.873-0.873-0.873-0.873c0,3.49,3.492,6.108,2.619,10.475c4.363-0.873,3.49,2.619,6.109,5.234
	c2.617,1.745,6.107-0.873,9.6-1.743c2.617-6.109,5.236-13.095,11.346-15.71c1.744-0.873,6.109,5.233,10.475,1.744
	c2.447-3.266-4.264-8.058-3-9.377c-3.945,0.659-7.893,0.816-11.838,2.396C116.377,190.642,115.504,187.151,118.123,183.658z"/>
<g>
	<path fill="#FFFFFF" stroke="#000000" stroke-linecap="square" stroke-linejoin="bevel" stroke-miterlimit="10" d="M187.834,56.784
		l-3.711-6.871l1.855-4.91l-1.527-2.4l-2.072-1.091v-8.4l-3.709-5.345l-2.619-5.128l1.746-5.018l-2.617-2.292
		c0,0-1.854,0.872-3.383,0.979c-1.529,0.108-0.982-0.108-2.617-0.655c-1.637-0.545-1.746-1.09-3.602-0.979
		c-1.855,0.106-5.018,2.274-5.018,2.274s-1.201-0.423-2.293,0.016c-1.09,0.437-2.51-0.108-2.943,0
		c-0.438,0.107-3.164,2.182-3.273,2.509s0,4.801,0,4.801h-0.654c0,0-1.309,0.546-1.965,0.873c-0.652,0.326-2.07,0.98-3.053,1.525
		c-0.98,0.546-4.363,3.055-4.691,3.382c-0.326,0.328-0.98,0.437-1.309,0.655c-0.33,0.219-2.182,0.219-4.256,0
		c-2.072-0.221-2.836-0.438-3.49-0.873c-0.652-0.438-2.727-0.98-2.727-0.98l-10.039,7.636c0,0,0,1.2-0.545,2.399
		c-0.545,1.2,0.219,1.745,0,2.51c-0.219,0.766-0.873,2.617-0.873,2.617s-0.436,3.384-0.654,4.037
		c-0.217,0.655-0.326,1.854-0.545,2.511c-0.217,0.652-0.654,1.638-1.418,2.398c-0.762,0.764,0.109,0.979,0,1.525
		c-0.109,0.547-0.764,2.944-0.98,3.271c-0.219,0.327-1.42,1.311-2.072,1.745c-0.654,0.438-2.4,2.073-2.4,2.073s-1.855,0-3.273,0
		s-1.527-8.073-1.527-8.073h-6.438l-4.254-1.526l-1.854-3.271l-1.092-11.563L89.106,36.6l-9.164,0.328l-8.51-5.456l-5.672,6.109
		H54.85l-2.182,1.09l0.732,3.015l2.182,0.873l0.873,3.491l-2.037,3.056l0.291,1.744l3.346-1.163l2.328,0.146l4.654,2.034l4.51,4.363
		l5.236,5.235l-0.291,3.929l-2.182,6.108h2.035l2.037,1.31l1.164,2.472l-0.145,2.91l-1.746,2.618l-0.291,4.219L74.2,91.866
		c0,0,1.891,3.639,2.037,4.074c0.145,0.438,4.652,4.507,4.652,4.507l-1.453,1.893l-2.328,3.929c0,0-0.145,2.617-0.289,3.055
		c-0.043,0.126-0.072,0.64-0.094,1.291c2.83-1.073,5.096-0.67,7.359,2.351c-0.873-1.745,1.746-2.616,0.873-4.362
		c6.109,0,11.346-6.979,16.582-7.854c6.109-0.873,10.473-3.49,12.219-8.729c6.982,10.475,12.219,3.49,19.201-3.491
		c0,0.873,0,1.745,0,2.619c0.871,0.872,3.49,0,4.363,0c2.617,5.234,5.236,10.475,11.346,11.347c1.744,0,5.236-3.49,5.236-2.618
		c1.152,5.003,3.326,7.289,5.92,8.808c0.061-0.026,0.127-0.053,0.188-0.081c-0.063,0.028-0.127,0.055-0.188,0.081
		c3.287,1.924,7.246,2.614,10.662,6.029c1.746-5.236,0-11.348,1.746-14.837c7.854-11.347,3.49-23.563,5.232-34.909
		c0.729-5.068,4.455-1.729,8.693-1.441l-0.621-0.413l2.293-3.709v-2.616h0.004V56.784z"/>
	<path fill="#FFFFFF" stroke="#000000" stroke-linecap="square" stroke-linejoin="bevel" stroke-miterlimit="10" d="M48.891,47.654
		h2.473V44.89l-2.473-1.746l-3.492,3.928l-1.309,3.781c0,0-0.291,1.603,0,2.183c0.291,0.582,1.455,1.894,1.455,1.894l2.117-0.583
		l1.664-0.291l0.438-3.2l-0.146-1.814L48.891,47.654z"/>
	<path fill="#FFFFFF" stroke="#000000" stroke-linecap="square" stroke-linejoin="bevel" stroke-miterlimit="10" d="M46.854,89.835
		l-1.6,0.873c0,0-2.002,0.727-1.291,1.163c0.709,0.436,0.574,0.727,1.369,0.727s1.393-0.291,2.33,0s1.375,1.019,1.375,0
		s0-2.182,0-2.182L46.854,89.835z"/>
	<path fill="#FFFFFF" stroke="#000000" stroke-linecap="square" stroke-linejoin="bevel" stroke-miterlimit="10" d="M45.836,95.945
		c0,0,0.291,1.02,0,1.893s-1.01,1.746,0.586,1.746c1.594,0,2.613,0,2.613,0s1.018-0.582,1.164-1.819
		c0.146-1.235,0.146-1.235,0.146-1.235l-1.309-0.582l-1.375-0.873L45.836,95.945z"/>
</g>
</svg>
